<svg width="115" height="36" viewBox="0 0 115 36" fill="none" xmlns="http://www.w3.org/2000/svg">
<circle cx="16.125" cy="18" r="16.125" fill="#1D37AF"/>
<path d="M15.0786 22.7569C16.399 22.7569 17.3558 22.3597 17.9489 21.5652C18.5531 20.7595 18.8776 19.3551 18.9224 17.3521V17.1507C18.9224 15.1365 18.6091 13.6929 17.9824 12.8201C17.367 11.9473 16.371 11.5109 14.9947 11.5109C12.5888 11.5109 11.3859 13.4132 11.3859 17.2178C11.3859 19.0642 11.6824 20.4518 12.2755 21.3805C12.8797 22.2981 13.8141 22.7569 15.0786 22.7569ZM13.5176 26.8357C11.2236 26.8357 9.42201 25.9853 8.11277 24.2844C6.81472 22.5835 6.16569 20.2168 6.16569 17.1843C6.16569 14.0734 6.84269 11.6675 8.19669 9.96665C9.56188 8.26576 11.4642 7.41531 13.9036 7.41531C15.2241 7.41531 16.3095 7.6503 17.16 8.12029C18.0216 8.59027 18.7322 9.29525 19.2917 10.2352H19.5434C19.812 9.18334 20.1869 8.34968 20.668 7.73423H24.8979C24.5398 8.81967 24.2489 10.0674 24.0251 11.4773C23.8125 12.8761 23.7061 14.1573 23.7061 15.3211V20.5581C23.7061 21.8785 24.1761 22.5387 25.1161 22.5387C25.4742 22.5387 25.8043 22.4828 26.1064 22.3709V26.3993C25.9274 26.5112 25.5805 26.6119 25.0657 26.7014C24.5622 26.7909 24.1426 26.8357 23.8069 26.8357C22.5536 26.8357 21.5968 26.6231 20.9366 26.1979C20.2764 25.7615 19.756 25.0397 19.3756 24.0326H19.0231C17.7922 25.9013 15.957 26.8357 13.5176 26.8357Z" fill="#BBF41C"/>
<path d="M44.94 28.33C43.8 28.33 42.79 28.12 41.91 27.7C41.05 27.28 40.37 26.71 39.87 25.99C39.39 25.25 39.15 24.41 39.15 23.47C39.15 22.41 39.43 21.57 39.99 20.95C40.55 20.31 41.45 19.86 42.69 19.6C43.93 19.32 45.58 19.18 47.64 19.18H48.78V18.76C48.78 18.04 48.59 17.53 48.21 17.23C47.85 16.93 47.22 16.78 46.32 16.78C45.56 16.78 44.72 16.9 43.8 17.14C42.88 17.38 41.98 17.75 41.1 18.25L39.75 14.74C40.25 14.38 40.89 14.06 41.67 13.78C42.45 13.5 43.27 13.29 44.13 13.15C44.99 12.99 45.8 12.91 46.56 12.91C49.02 12.91 50.84 13.44 52.02 14.5C53.22 15.56 53.82 17.23 53.82 19.51V28H48.84V25.9C48.58 26.66 48.11 27.26 47.43 27.7C46.75 28.12 45.92 28.33 44.94 28.33ZM46.14 24.85C46.88 24.85 47.5 24.61 48 24.13C48.52 23.65 48.78 23.02 48.78 22.24V21.7H47.64C46.46 21.7 45.59 21.83 45.03 22.09C44.49 22.33 44.22 22.72 44.22 23.26C44.22 23.72 44.38 24.1 44.7 24.4C45.04 24.7 45.52 24.85 46.14 24.85ZM61.1808 28.33C59.1408 28.33 57.6608 27.82 56.7408 26.8C55.8208 25.76 55.3608 24.2 55.3608 22.12V6.85H60.7008V21.94C60.7008 23.34 61.3408 24.04 62.6208 24.04C62.8208 24.04 63.0208 24.03 63.2208 24.01C63.4408 23.99 63.6508 23.96 63.8508 23.92L63.7908 28C62.9908 28.22 62.1208 28.33 61.1808 28.33ZM64.2905 33.4V13.24H69.4805V15.25C69.8805 14.53 70.4905 13.96 71.3105 13.54C72.1305 13.12 73.0305 12.91 74.0105 12.91C75.2705 12.91 76.3805 13.22 77.3405 13.84C78.3205 14.46 79.0805 15.35 79.6205 16.51C80.1805 17.65 80.4605 19.02 80.4605 20.62C80.4605 22.2 80.1905 23.57 79.6505 24.73C79.1105 25.89 78.3505 26.78 77.3705 27.4C76.4105 28.02 75.2905 28.33 74.0105 28.33C73.0905 28.33 72.2305 28.14 71.4305 27.76C70.6505 27.38 70.0505 26.87 69.6305 26.23V33.4H64.2905ZM72.3305 24.4C73.1305 24.4 73.7905 24.1 74.3105 23.5C74.8305 22.9 75.0905 21.94 75.0905 20.62C75.0905 19.28 74.8305 18.32 74.3105 17.74C73.7905 17.14 73.1305 16.84 72.3305 16.84C71.5105 16.84 70.8405 17.14 70.3205 17.74C69.8005 18.32 69.5405 19.28 69.5405 20.62C69.5405 21.94 69.8005 22.9 70.3205 23.5C70.8405 24.1 71.5105 24.4 72.3305 24.4ZM81.394 28V6.85H86.734V15.07C87.794 13.63 89.334 12.91 91.354 12.91C93.114 12.91 94.414 13.43 95.254 14.47C96.114 15.51 96.544 17.11 96.544 19.27V28H91.204V19.48C91.204 18.58 91.044 17.94 90.724 17.56C90.424 17.18 89.974 16.99 89.374 16.99C88.574 16.99 87.934 17.25 87.454 17.77C86.974 18.27 86.734 18.95 86.734 19.81V28H81.394ZM103.217 28.33C102.077 28.33 101.067 28.12 100.187 27.7C99.3273 27.28 98.6473 26.71 98.1473 25.99C97.6673 25.25 97.4273 24.41 97.4273 23.47C97.4273 22.41 97.7073 21.57 98.2673 20.95C98.8273 20.31 99.7273 19.86 100.967 19.6C102.207 19.32 103.857 19.18 105.917 19.18H107.057V18.76C107.057 18.04 106.867 17.53 106.487 17.23C106.127 16.93 105.497 16.78 104.597 16.78C103.837 16.78 102.997 16.9 102.077 17.14C101.157 17.38 100.257 17.75 99.3773 18.25L98.0273 14.74C98.5273 14.38 99.1673 14.06 99.9473 13.78C100.727 13.5 101.547 13.29 102.407 13.15C103.267 12.99 104.077 12.91 104.837 12.91C107.297 12.91 109.117 13.44 110.297 14.5C111.497 15.56 112.097 17.23 112.097 19.51V28H107.117V25.9C106.857 26.66 106.387 27.26 105.707 27.7C105.027 28.12 104.197 28.33 103.217 28.33ZM104.417 24.85C105.157 24.85 105.777 24.61 106.277 24.13C106.797 23.65 107.057 23.02 107.057 22.24V21.7H105.917C104.737 21.7 103.867 21.83 103.307 22.09C102.767 22.33 102.497 22.72 102.497 23.26C102.497 23.72 102.657 24.1 102.977 24.4C103.317 24.7 103.797 24.85 104.417 24.85Z" fill="#1D37AF"/>
</svg>
